<svg xmlns="http://www.w3.org/2000/svg" width="46" height="39" fill="none" viewBox="0 0 46 39">
  <rect width="45" height="38" x=".5" y=".5" stroke="#F2F2F2" rx="4.5"/>
  <path fill="#0F0F0F" d="m18.825 20.5 4.9 4.9c.2.2.296.433.288.7-.008.266-.112.5-.313.7-.2.183-.433.28-.7.288a.913.913 0 0 1-.7-.288l-6.6-6.6a.883.883 0 0 1-.213-.325 1.166 1.166 0 0 1 .002-.75.854.854 0 0 1 .212-.325l6.6-6.6a.933.933 0 0 1 .688-.275c.275 0 .513.091.712.275.2.2.3.438.3.713a.97.97 0 0 1-.3.712L18.825 18.5H30c.283 0 .521.096.713.288.192.192.288.43.287.712 0 .282-.097.52-.288.713A.957.957 0 0 1 30 20.5H18.825Z"/>
</svg>
